####
#
# OBJ File Generated by Meshlab
#
####
# Object Footlink_Narrow_Col.obj
#
# Vertices: 159
# Faces: 310
#
####
vn -2.3789644 1.3469468 2.1112158
v -0.0905000 0.0300000 -0.0400000
vn -2.3789644 -1.3469467 2.1112158
v -0.0905000 -0.0300000 -0.0400000
vn -1.1354066 2.8611412 2.9692242
v -0.0661436 0.0446138 -0.0400000
vn -1.1354065 -2.8611412 2.9692240
v -0.0661436 -0.0446138 -0.0400000
vn -1.2077323 4.4052029 3.2443547
v 0.0010000 0.0446138 -0.0400000
vn -1.2077324 -4.4052029 3.2443550
v 0.0010000 -0.0446138 -0.0400000
vn 1.4728802 0.2880106 5.8456140
v 0.0246771 0.0023694 0.0273977
vn 1.4779854 0.5994922 5.8013868
v 0.0252072 0.0047212 0.0270917
vn -2.9699109 0.5374225 3.0834322
v 0.0010000 0.0047212 0.0270917
vn -2.9693348 2.6916203 1.5973521
v 0.0010000 0.0236490 0.0140348
vn -2.9694350 2.3774321 2.0357223
v 0.0010000 0.0208884 0.0178864
vn 1.5286969 2.4745946 4.6549869
v 0.0411512 0.0208884 0.0178864
vn 1.5388296 2.6223042 4.4497056
v 0.0443837 0.0223518 0.0160202
vn 1.5346725 2.7713165 4.1991973
v 0.0478225 0.0236490 0.0140348
vn -3.0555305 2.8833642 1.2401699
v 0.0010000 0.0257074 0.0097664
vn 1.5432899 2.8814104 3.9713733
v 0.0514421 0.0247703 0.0119450
vn 1.5587386 2.9350481 3.8407359
v 0.0552156 0.0257074 0.0097664
vn -2.9695623 1.9926549 2.4136419
v 0.0010000 0.0175076 0.0212069
vn -2.9697092 1.5487175 2.7198970
v 0.0010000 0.0136069 0.0238978
vn 1.5080925 1.6588279 5.3868842
v 0.0307393 0.0136069 0.0238978
vn 1.5215104 1.8715918 5.2425013
v 0.0329238 0.0156153 0.0226365
vn 1.5200828 2.1011622 5.0548801
v 0.0353999 0.0175076 0.0212069
vn 1.5319102 2.2830462 4.8776221
v 0.0381492 0.0192697 0.0196196
vn -2.9698412 1.0587927 2.9453893
v 0.0010000 0.0093021 0.0258790
vn 1.4884155 0.8645138 5.7382693
v 0.0260862 0.0070378 0.0265842
vn 1.4928576 1.1553135 5.6397424
v 0.0273077 0.0093021 0.0258790
vn 1.5067036 1.3961468 5.5330534
v 0.0288626 0.0114973 0.0249813
vn -0.0123911 0.0094944 3.2871652
v 0.0245000 -0.0000000 0.0275000
vn -0.0063535 0.0042899 3.1302674
v 0.0010000 -0.0000000 0.0275000
vn 1.4856874 -0.2955863 5.8453417
v 0.0246771 -0.0023694 0.0273977
vn -2.9814332 -0.5376931 3.0840836
v 0.0010000 -0.0047212 0.0270917
vn 1.4916220 -0.5864275 5.8043222
v 0.0252072 -0.0047212 0.0270917
vn 1.4979556 -0.8687213 5.7373796
v 0.0260862 -0.0070378 0.0265842
vn -2.9805307 -1.0593163 2.9458804
v 0.0010000 -0.0093021 0.0258790
vn 1.5065645 -1.1399145 5.6461310
v 0.0273077 -0.0093021 0.0258790
vn 1.5135497 -1.3983934 5.5321560
v 0.0288626 -0.0114973 0.0249813
vn -2.9793084 -1.5493519 2.7201915
v 0.0010000 -0.0136069 0.0238978
vn 1.5210186 -1.6430219 5.3969154
v 0.0307393 -0.0136069 0.0238978
vn 1.5264308 -1.8728002 5.2417564
v 0.0329238 -0.0156153 0.0226365
vn -2.9780021 -1.9932861 2.4137654
v 0.0010000 -0.0175076 0.0212069
vn 1.5318289 -2.0867171 5.0680089
v 0.0353999 -0.0175076 0.0212069
vn 1.5355312 -2.2837110 4.8770323
v 0.0381492 -0.0192697 0.0196196
vn -2.9767826 -2.3779964 2.0357208
v 0.0010000 -0.0208884 0.0178864
vn 1.5391808 -2.4627144 4.6702671
v 0.0411512 -0.0208884 0.0178864
vn 1.5415864 -2.6226768 4.4492388
v 0.0443837 -0.0223518 0.0160202
vn -2.9757223 -2.6920950 1.5972707
v 0.0010000 -0.0236490 0.0140348
vn 1.5439761 -2.7626088 4.2155752
v 0.0478225 -0.0236490 0.0140348
vn 1.5454693 -2.8816166 3.9709945
v 0.0514421 -0.0247703 0.0119450
vn -3.0584154 -2.8841538 1.2383213
v 0.0010000 -0.0257074 0.0097664
vn 1.5587382 -2.9350398 3.8407323
v 0.0552156 -0.0257074 0.0097664
vn 0.6915401 -0.5172019 -0.1765208
v 0.1414134 -0.0446138 -0.0400000
vn 0.6915401 0.5172033 -0.1765281
v 0.1414134 0.0446138 -0.0400000
vn 1.4846773 0.0000000 2.5715623
v 0.0245000 -0.0000000 0.0275000
vn 0.0249435 -2.2927194 -5.2722759
v 0.1295000 -0.0300000 -0.1130000
vn -2.1173515 -1.4430963 -2.0620313
v -0.0905000 -0.0300000 -0.1130000
vn 0.0249180 2.2927341 -5.2722769
v 0.1295000 0.0300000 -0.1130000
vn -2.1173513 1.4430963 -2.0620313
v -0.0905000 0.0300000 -0.1130000
vn 0.7437599 2.2724783 -5.1826224
v 0.1614315 0.0333031 -0.1094216
vn 0.8644338 2.2710354 -5.1506085
v 0.1656171 0.0343016 -0.1083400
vn 0.7437760 -2.2724776 -5.1826172
v 0.1614326 -0.0333034 -0.1094213
vn 4.3561487 2.8003969 0.3532958
v 0.1994072 0.0300398 -0.0788275
vn 4.3116870 2.7997968 0.6321906
v 0.1992021 0.0301277 -0.0775046
vn 4.3561382 -2.8003957 0.3531485
v 0.1994074 -0.0300397 -0.0788289
vn 4.2427635 2.8015018 0.9053960
v 0.1988517 0.0302779 -0.0760869
vn 4.1494660 2.8015232 1.1710709
v 0.1983835 0.0304785 -0.0747184
vn 4.2427473 -2.8015013 0.9053850
v 0.1988517 -0.0302778 -0.0760871
vn 4.0333662 2.8033864 1.4265194
v 0.1976932 0.0307743 -0.0731637
vn 3.8940015 2.8030691 1.6717210
v 0.1968722 0.0311262 -0.0716788
vn 4.0334272 -2.8033876 1.4264052
v 0.1976939 -0.0307740 -0.0731651
vn 3.7345450 2.8057878 1.9019538
v 0.1956635 0.0316442 -0.0698883
vn 3.5561240 2.8066161 2.1158657
v 0.1943239 0.0322183 -0.0682349
vn 3.7346025 -2.8057859 1.9018799
v 0.1956643 -0.0316439 -0.0698894
vn 3.3624954 2.8094616 2.3104997
v 0.1923252 0.0330749 -0.0661673
vn 3.1705303 2.8186727 2.4740274
v 0.1901601 0.0340028 -0.0642808
vn 3.3625050 -2.8094594 2.3104863
v 0.1923255 -0.0330748 -0.0661675
vn 2.9887617 2.8266008 2.6063702
v 0.1875711 0.0351124 -0.0623527
vn 2.8185101 2.8333430 2.7133858
v 0.1848837 0.0362641 -0.0606242
vn 2.9890282 -2.8265965 2.6061909
v 0.1875788 -0.0351091 -0.0623581
vn 2.3687754 2.8468797 2.9301119
v 0.1750232 0.0404901 -0.0558113
vn 2.2366624 2.8500853 2.9778609
v 0.1713990 0.0420433 -0.0544649
vn 2.3687949 -2.8468795 2.9301052
v 0.1750242 -0.0404897 -0.0558117
vn 2.1871624 2.9303315 2.9938216
v 0.1632942 0.0455168 -0.0520383
vn 2.1718638 -2.9467032 2.9979167
v 0.1632942 -0.0455168 -0.0520383
vn 2.0344212 -2.8705664 3.0387177
v 0.1634380 -0.0454552 -0.0520752
vn 2.1100214 2.8520288 3.0174565
v 0.1674414 0.0437394 -0.0531881
vn 2.1115611 -2.8525541 3.0170281
v 0.1674454 -0.0437377 -0.0531893
vn 2.2367129 -2.8500967 2.9778452
v 0.1713990 -0.0420433 -0.0544649
vn 2.5092428 2.8431878 2.8717940
v 0.1785915 0.0389608 -0.0573321
vn 2.5091779 -2.8432770 2.8718262
v 0.1785915 -0.0389608 -0.0573321
vn 2.6588259 2.8385930 2.8005848
v 0.1817816 0.0375936 -0.0588889
vn 2.6585195 -2.8385985 2.8007412
v 0.1817696 -0.0375987 -0.0588826
vn 2.8183694 -2.8331752 2.7134585
v 0.1848837 -0.0362641 -0.0606242
vn 3.1707110 -2.8187535 2.4738925
v 0.1901601 -0.0340028 -0.0642808
vn 3.5561566 -2.8065958 2.1158304
v 0.1943239 -0.0322183 -0.0682349
vn 3.8940473 -2.8030586 1.6716354
v 0.1968722 -0.0311262 -0.0716788
vn 4.1494975 -2.8015609 1.1710070
v 0.1983835 -0.0304785 -0.0747184
vn 4.3117313 -2.7997520 0.6321210
v 0.1992021 -0.0301277 -0.0775046
vn 4.1998749 -2.8007898 -1.0369068
v 0.1986489 -0.0303648 -0.0855527
vn 4.1998758 2.8007348 -1.0368421
v 0.1986489 0.0303648 -0.0855527
vn 4.2811432 2.8011315 -0.7664345
v 0.1990455 0.0301948 -0.0841973
vn 4.3751569 2.7993906 0.0719297
v 0.1994963 0.0300016 -0.0801643
vn 4.3752136 -2.7995932 0.0721225
v 0.1994963 -0.0300016 -0.0801643
vn 4.3689995 2.8002687 -0.2100959
v 0.1994674 0.0300140 -0.0814916
vn 4.3691354 -2.8002417 -0.2095045
v 0.1994678 -0.0300138 -0.0814860
vn 4.3373556 2.7997794 -0.4904321
v 0.1993230 0.0300759 -0.0828100
vn 4.3373771 -2.7995450 -0.4902354
v 0.1993230 -0.0300759 -0.0828100
vn 4.2810764 -2.8011291 -0.7666083
v 0.1990451 -0.0301949 -0.0841991
vn 3.6484993 -2.8047652 -2.0097945
v 0.1951011 -0.0318853 -0.0918394
vn 3.6486354 2.8047972 -2.0096436
v 0.1951011 0.0318853 -0.0918394
vn 3.8190498 2.8051240 -1.7855008
v 0.1962913 0.0313752 -0.0902270
vn 4.0952797 2.8028595 -1.2979571
v 0.1980543 0.0306196 -0.0870710
vn 4.0952673 -2.8028507 -1.2979550
v 0.1980543 -0.0306196 -0.0870710
vn 3.9676936 2.8030183 -1.5484540
v 0.1973382 0.0309265 -0.0885144
vn 3.9676437 -2.8029869 -1.5485283
v 0.1973382 -0.0309265 -0.0885144
vn 3.8189805 -2.8051271 -1.7856044
v 0.1962903 -0.0313756 -0.0902285
vn 3.2700567 -2.8157651 -2.3927236
v 0.1913768 -0.0334814 -0.0956962
vn 3.2701240 2.8157153 -2.3926673
v 0.1913768 0.0334814 -0.0956962
vn 3.4607317 2.8076744 -2.2159708
v 0.1933121 0.0326520 -0.0938600
vn 3.4605751 -2.8076844 -2.2161374
v 0.1933089 -0.0326533 -0.0938632
vn 2.9076364 -2.8298392 -2.6592646
v 0.1863869 -0.0356199 -0.0994385
vn 2.9077094 2.8298643 -2.6592178
v 0.1863869 0.0356199 -0.0994385
vn 3.0841954 2.8225939 -2.5393879
v 0.1889488 0.0345219 -0.0976587
vn 3.0841784 -2.8225963 -2.5394053
v 0.1889482 -0.0345222 -0.0976592
vn 2.7421863 2.8358369 -2.7565656
v 0.1834152 0.0368935 -0.1012279
vn 2.7419844 -2.8357978 -2.7566752
v 0.1834114 -0.0368951 -0.1012300
vn 2.6202478 2.8547635 -2.8204432
v 0.1803537 0.0382055 -0.1028335
vn 2.6200700 -2.8547947 -2.8205256
v 0.1803477 -0.0382081 -0.1028365
vn 1.9065070 2.9299874 -2.9516466
v 0.1789975 0.0387868 -0.1034810
vn 1.9064693 -2.9300399 -2.9516661
v 0.1789975 -0.0387868 -0.1034810
vn 1.1551145 2.2544384 -5.0510960
v 0.1733879 0.0366287 -0.1058189
vn 1.1551007 -2.2544253 -5.0511007
v 0.1733879 -0.0366287 -0.1058189
vn 0.9913624 2.2692671 -5.1112900
v 0.1695486 0.0353950 -0.1071555
vn 0.9913164 -2.2692690 -5.1113062
v 0.1695460 -0.0353942 -0.1071563
vn 0.8644151 -2.2710505 -5.1506143
v 0.1656171 -0.0343016 -0.1083400
vn 0.6283483 2.2737780 -5.2084990
v 0.1571839 0.0324458 -0.1103504
vn 0.6283550 -2.2737739 -5.2084990
v 0.1571839 -0.0324458 -0.1103504
vn 0.5173301 -2.2747483 -5.2291226
v 0.1527363 -0.0317011 -0.1111572
vn 0.1008510 -2.2768953 -5.2704573
v 0.1342395 -0.0300688 -0.1129254
vn 0.1007955 2.2768950 -5.2704592
v 0.1342345 0.0300687 -0.1129256
vn 0.2022406 -2.2767053 -5.2655520
v 0.1389582 -0.0302751 -0.1127020
vn 0.2022431 2.2766757 -5.2655520
v 0.1389582 0.0302751 -0.1127020
vn 0.3049736 -2.2761970 -5.2572179
v 0.1436110 -0.0306159 -0.1123328
vn 0.3050307 2.2761965 -5.2572122
v 0.1436159 0.0306163 -0.1123323
vn 0.4097705 -2.2756050 -5.2451973
v 0.1482429 -0.0310954 -0.1118133
vn 0.4097907 2.2756205 -5.2451963
v 0.1482429 0.0310954 -0.1118133
vn 0.5173282 2.2747486 -5.2291217
v 0.1527362 0.0317010 -0.1111572
vn -2.9690597 0.0000000 0.0000000
v 0.0010000 -0.0000000 0.0275000
vn 1.8440232 2.9707451 3.6585987
v 0.1439688 0.0454676 -0.0422474
vn 1.8440231 -2.9707451 3.6585979
v 0.1439688 -0.0454676 -0.0422474
vn 1.5629854 -3.0799117 3.8316844
v 0.1499109 -0.0470606 -0.0464405
vn 1.5629849 3.0799117 3.8316836
v 0.1499109 0.0470606 -0.0464405
vn 1.8071601 -3.1598673 2.8639097
v 0.1566762 -0.0483531 -0.0498425
vn 1.8071598 3.1598675 2.8639092
v 0.1566762 0.0483531 -0.0498425
vn 1.0876744 -5.2351937 1.8483166
v 0.1410137 -0.0446138 -0.0400000
vn 1.0876744 5.2351999 1.8483045
v 0.1410137 0.0446138 -0.0400000
vn 0.4754036 -5.1189246 -0.9450607
v 0.1295000 -0.0600000 -0.0805000
vn -0.7425425 -4.9818573 -0.8919899
v -0.0405000 -0.0600000 -0.0805000
vn 0.4754035 5.1189213 -0.9450579
v 0.1295000 0.0600000 -0.0805000
vn -0.7425426 4.9818583 -0.8919901
v -0.0405000 0.0600000 -0.0805000
# 159 vertices, 0 vertices normals

f 1//1 2//2 3//3
f 3//3 2//2 4//4
f 3//3 4//4 5//5
f 5//5 4//4 6//6
f 7//7 8//8 9//9
f 10//10 11//11 12//12
f 12//12 13//13 10//10
f 10//10 13//13 14//14
f 10//10 14//14 15//15
f 15//15 14//14 16//16
f 15//15 16//16 17//17
f 18//18 19//19 20//20
f 20//20 21//21 18//18
f 18//18 21//21 22//22
f 18//18 22//22 11//11
f 11//11 22//22 23//23
f 11//11 23//23 12//12
f 9//9 8//8 24//24
f 8//8 25//25 24//24
f 24//24 25//25 26//26
f 24//24 26//26 19//19
f 19//19 26//26 27//27
f 19//19 27//27 20//20
f 7//7 9//9 28//28
f 28//28 9//9 29//29
f 28//28 29//29 30//30
f 30//30 29//29 31//31
f 30//30 31//31 32//32
f 32//32 31//31 33//33
f 33//33 31//31 34//34
f 33//33 34//34 35//35
f 35//35 34//34 36//36
f 36//36 34//34 37//37
f 36//36 37//37 38//38
f 38//38 37//37 39//39
f 39//39 37//37 40//40
f 39//39 40//40 41//41
f 41//41 40//40 42//42
f 42//42 40//40 43//43
f 42//42 43//43 44//44
f 44//44 43//43 45//45
f 45//45 43//43 46//46
f 45//45 46//46 47//47
f 47//47 46//46 48//48
f 48//48 46//46 49//49
f 48//48 49//49 50//50
f 45//45 47//47 13//13
f 51//51 52//52 50//50
f 50//50 52//52 17//17
f 50//50 17//17 48//48
f 48//48 17//17 16//16
f 48//48 16//16 47//47
f 47//47 16//16 14//14
f 47//47 14//14 13//13
f 45//45 13//13 44//44
f 44//44 13//13 12//12
f 44//44 12//12 42//42
f 12//12 23//23 42//42
f 42//42 23//23 22//22
f 42//42 22//22 41//41
f 41//41 22//22 21//21
f 41//41 21//21 39//39
f 39//39 21//21 38//38
f 38//38 21//21 20//20
f 38//38 20//20 36//36
f 20//20 27//27 36//36
f 36//36 27//27 26//26
f 36//36 26//26 35//35
f 35//35 26//26 25//25
f 35//35 25//25 33//33
f 33//33 25//25 8//8
f 33//33 8//8 32//32
f 32//32 8//8 30//30
f 30//30 8//8 7//7
f 30//30 7//7 53//53
f 54//54 55//55 56//56
f 56//56 55//55 57//57
f 58//58 59//59 60//60
f 61//61 62//62 63//63
f 64//64 65//65 66//66
f 67//67 68//68 69//69
f 70//70 71//71 72//72
f 73//73 74//74 75//75
f 76//76 77//77 78//78
f 79//79 80//80 81//81
f 82//82 83//83 84//84
f 82//82 84//84 85//85
f 85//85 84//84 86//86
f 85//85 86//86 80//80
f 80//80 86//86 87//87
f 80//80 87//87 81//81
f 79//79 81//81 88//88
f 88//88 81//81 89//89
f 88//88 89//89 90//90
f 90//90 89//89 91//91
f 90//90 91//91 77//77
f 77//77 91//91 92//92
f 77//77 92//92 78//78
f 76//76 78//78 74//74
f 74//74 78//78 93//93
f 74//74 93//93 75//75
f 73//73 75//75 71//71
f 71//71 75//75 94//94
f 71//71 94//94 72//72
f 70//70 72//72 68//68
f 68//68 72//72 95//95
f 68//68 95//95 69//69
f 67//67 69//69 65//65
f 65//65 69//69 96//96
f 65//65 96//96 66//66
f 64//64 66//66 62//62
f 62//62 66//66 97//97
f 62//62 97//97 63//63
f 98//98 99//99 100//100
f 61//61 63//63 101//101
f 101//101 63//63 102//102
f 101//101 102//102 103//103
f 103//103 102//102 104//104
f 103//103 104//104 105//105
f 105//105 104//104 106//106
f 105//105 106//106 100//100
f 100//100 106//106 107//107
f 100//100 107//107 98//98
f 108//108 109//109 110//110
f 99//99 98//98 111//111
f 111//111 98//98 112//112
f 111//111 112//112 113//113
f 113//113 112//112 114//114
f 113//113 114//114 110//110
f 110//110 114//114 115//115
f 110//110 115//115 108//108
f 116//116 117//117 118//118
f 109//109 108//108 118//118
f 118//118 108//108 119//119
f 118//118 119//119 116//116
f 120//120 121//121 122//122
f 117//117 116//116 122//122
f 122//122 116//116 123//123
f 122//122 123//123 120//120
f 121//121 120//120 124//124
f 124//124 120//120 125//125
f 124//124 125//125 126//126
f 126//126 125//125 127//127
f 126//126 127//127 128//128
f 128//128 127//127 129//129
f 128//128 129//129 130//130
f 130//130 129//129 131//131
f 130//130 131//131 132//132
f 132//132 131//131 133//133
f 132//132 133//133 59//59
f 59//59 133//133 134//134
f 59//59 134//134 60//60
f 58//58 60//60 135//135
f 135//135 60//60 136//136
f 135//135 136//136 137//137
f 54//54 56//56 138//138
f 138//138 56//56 139//139
f 138//138 139//139 140//140
f 140//140 139//139 141//141
f 140//140 141//141 142//142
f 142//142 141//141 143//143
f 142//142 143//143 144//144
f 144//144 143//143 145//145
f 144//144 145//145 137//137
f 137//137 145//145 146//146
f 137//137 146//146 135//135
f 55//55 2//2 57//57
f 57//57 2//2 1//1
f 18//18 11//11 49//49
f 40//40 24//24 43//43
f 43//43 24//24 46//46
f 46//46 24//24 49//49
f 49//49 24//24 19//19
f 49//49 19//19 18//18
f 5//5 6//6 15//15
f 15//15 6//6 49//49
f 15//15 49//49 10//10
f 10//10 49//49 11//11
f 34//34 31//31 147//147
f 40//40 37//37 24//24
f 24//24 37//37 34//34
f 24//24 34//34 9//9
f 9//9 34//34 147//147
f 148//148 149//149 150//150
f 148//148 150//150 151//151
f 151//151 150//150 152//152
f 151//151 152//152 153//153
f 153//153 152//152 83//83
f 153//153 83//83 82//82
f 154//154 149//149 155//155
f 155//155 149//149 148//148
f 51//51 50//50 154//154
f 154//154 50//50 49//49
f 156//156 152//152 150//150
f 4//4 157//157 6//6
f 6//6 157//157 156//156
f 49//49 6//6 154//154
f 154//154 6//6 156//156
f 154//154 156//156 149//149
f 149//149 156//156 150//150
f 52//52 51//51 155//155
f 155//155 51//51 154//154
f 155//155 148//148 158//158
f 158//158 148//148 151//151
f 158//158 151//151 153//153
f 17//17 52//52 15//15
f 15//15 52//52 155//155
f 15//15 155//155 5//5
f 5//5 155//155 158//158
f 5//5 158//158 3//3
f 3//3 158//158 159//159
f 57//57 159//159 56//56
f 56//56 159//159 158//158
f 56//56 158//158 139//139
f 139//139 158//158 141//141
f 146//146 145//145 158//158
f 158//158 145//145 143//143
f 158//158 143//143 141//141
f 59//59 58//58 158//158
f 158//158 58//58 135//135
f 158//158 135//135 146//146
f 128//128 130//130 158//158
f 158//158 130//130 132//132
f 158//158 132//132 59//59
f 156//156 157//157 55//55
f 55//55 54//54 156//156
f 156//156 54//54 138//138
f 156//156 138//138 140//140
f 140//140 142//142 156//156
f 156//156 142//142 144//144
f 156//156 144//144 137//137
f 137//137 136//136 156//156
f 156//156 136//136 60//60
f 156//156 60//60 134//134
f 134//134 133//133 156//156
f 156//156 133//133 131//131
f 156//156 131//131 129//129
f 157//157 4//4 55//55
f 55//55 4//4 2//2
f 152//152 156//156 83//83
f 83//83 156//156 129//129
f 83//83 129//129 84//84
f 84//84 129//129 127//127
f 84//84 127//127 86//86
f 89//89 81//81 127//127
f 127//127 81//81 87//87
f 127//127 87//87 86//86
f 89//89 127//127 91//91
f 91//91 127//127 125//125
f 91//91 125//125 92//92
f 92//92 125//125 120//120
f 92//92 120//120 78//78
f 78//78 120//120 123//123
f 78//78 123//123 93//93
f 93//93 123//123 116//116
f 93//93 116//116 75//75
f 75//75 116//116 119//119
f 75//75 119//119 94//94
f 95//95 72//72 115//115
f 94//94 119//119 72//72
f 72//72 119//119 108//108
f 72//72 108//108 115//115
f 96//96 69//69 112//112
f 95//95 115//115 69//69
f 69//69 115//115 114//114
f 69//69 114//114 112//112
f 97//97 66//66 107//107
f 96//96 112//112 66//66
f 66//66 112//112 98//98
f 66//66 98//98 107//107
f 107//107 106//106 104//104
f 104//104 102//102 107//107
f 107//107 102//102 63//63
f 107//107 63//63 97//97
f 158//158 153//153 128//128
f 128//128 153//153 82//82
f 128//128 82//82 126//126
f 82//82 85//85 126//126
f 126//126 85//85 80//80
f 126//126 80//80 79//79
f 109//109 118//118 70//70
f 79//79 88//88 126//126
f 126//126 88//88 90//90
f 126//126 90//90 124//124
f 124//124 90//90 77//77
f 124//124 77//77 121//121
f 121//121 77//77 76//76
f 121//121 76//76 122//122
f 122//122 76//76 74//74
f 122//122 74//74 117//117
f 117//117 74//74 73//73
f 117//117 73//73 118//118
f 118//118 73//73 71//71
f 118//118 71//71 70//70
f 113//113 110//110 67//67
f 109//109 70//70 110//110
f 110//110 70//70 68//68
f 110//110 68//68 67//67
f 99//99 111//111 64//64
f 113//113 67//67 111//111
f 111//111 67//67 65//65
f 111//111 65//65 64//64
f 99//99 64//64 100//100
f 100//100 64//64 62//62
f 100//100 62//62 61//61
f 61//61 101//101 100//100
f 100//100 101//101 103//103
f 100//100 103//103 105//105
f 57//57 1//1 159//159
f 159//159 1//1 3//3
# 310 faces, 0 coords texture

# End of File
